<mxfile host="app.diagrams.net" modified="2022-01-23T09:27:18.027Z" agent="5.0 (Windows NT 10.0; Win64; x64) AppleWebKit/537.36 (KHTML, like Gecko) Chrome/95.0.4638.54 Safari/537.36" etag="bv6o7AGGwwwentYv5x92" version="16.4.3" type="github">
  <diagram id="exjufbBnSaVFU7colq5O" name="第 1 页">
    <mxGraphModel dx="2412" dy="783" grid="1" gridSize="10" guides="1" tooltips="1" connect="1" arrows="1" fold="1" page="1" pageScale="1" pageWidth="827" pageHeight="1169" math="0" shadow="0">
      <root>
        <mxCell id="0" />
        <mxCell id="1" parent="0" />
        <mxCell id="luQNXLgjJycTRz7pYveU-1" value="&lt;h1 style=&quot;font-size: 28px&quot;&gt;&lt;font style=&quot;font-size: 28px&quot;&gt;&lt;br&gt;&lt;/font&gt;&lt;/h1&gt;&lt;p style=&quot;font-size: 28px&quot;&gt;&lt;font style=&quot;font-size: 28px&quot;&gt;&lt;b&gt;&lt;i&gt;legend:&lt;/i&gt;&lt;/b&gt;&lt;/font&gt;&lt;/p&gt;&lt;p style=&quot;font-size: 28px&quot;&gt;&lt;font color=&quot;#ff00ff&quot; style=&quot;font-size: 28px&quot;&gt;&lt;b&gt;xxxx Function call by APP&lt;/b&gt;&lt;/font&gt;&lt;/p&gt;&lt;p style=&quot;font-size: 28px&quot;&gt;&lt;font style=&quot;font-size: 28px&quot;&gt;&lt;b style=&quot;color: rgb(255 , 128 , 0)&quot;&gt;xxxx Event triggered&amp;nbsp;by UFO&lt;/b&gt;&lt;font color=&quot;#ff00ff&quot; style=&quot;font-size: 28px&quot;&gt;&lt;b&gt;&lt;br&gt;&lt;/b&gt;&lt;/font&gt;&lt;/font&gt;&lt;/p&gt;&lt;p style=&quot;font-size: 28px&quot;&gt;&lt;b&gt;&lt;font style=&quot;font-size: 28px&quot;&gt;&lt;font color=&quot;#000099&quot; style=&quot;font-size: 28px&quot;&gt;xxxx Event triggered&amp;nbsp;by Internal&lt;/font&gt;&lt;font color=&quot;#ff00ff&quot; style=&quot;font-size: 28px&quot;&gt;&lt;br&gt;&lt;/font&gt;&lt;/font&gt;&lt;/b&gt;&lt;/p&gt;&lt;p style=&quot;font-size: 28px&quot;&gt;&lt;font color=&quot;#336600&quot; style=&quot;font-size: 28px&quot;&gt;&lt;b&gt;xxxx Msg Rcv From External&lt;/b&gt;&lt;/font&gt;&lt;/p&gt;&lt;p style=&quot;font-size: 28px&quot;&gt;&lt;font color=&quot;#336600&quot; style=&quot;font-size: 28px&quot;&gt;&lt;b&gt;&lt;br&gt;&lt;/b&gt;&lt;/font&gt;&lt;/p&gt;&lt;p style=&quot;font-size: 28px&quot;&gt;&lt;font color=&quot;#336600&quot; style=&quot;font-size: 28px&quot;&gt;&lt;b&gt;&lt;br&gt;&lt;/b&gt;&lt;/font&gt;&lt;/p&gt;&lt;p style=&quot;font-size: 28px&quot;&gt;&lt;font color=&quot;#336600&quot; style=&quot;font-size: 28px&quot;&gt;&lt;b&gt;S1 Step 1 、S2 Step 2&lt;/b&gt;&lt;/font&gt;&lt;/p&gt;&lt;p style=&quot;font-size: 28px&quot;&gt;&lt;font style=&quot;font-size: 28px&quot;&gt;&lt;br&gt;&lt;/font&gt;&lt;/p&gt;&lt;p style=&quot;font-size: 28px&quot;&gt;&lt;font color=&quot;#ff8000&quot; style=&quot;font-size: 28px&quot;&gt;&lt;br&gt;&lt;/font&gt;&lt;/p&gt;&lt;p style=&quot;font-size: 28px&quot;&gt;&lt;font color=&quot;#ff8000&quot; style=&quot;font-size: 28px&quot;&gt;&lt;br&gt;&lt;/font&gt;&lt;/p&gt;&lt;p style=&quot;font-size: 28px&quot;&gt;&lt;br&gt;&lt;/p&gt;" style="text;html=1;strokeColor=none;fillColor=none;spacing=5;spacingTop=-20;whiteSpace=wrap;overflow=hidden;rounded=0;fontColor=#46495D;" vertex="1" parent="1">
          <mxGeometry x="-500" y="20" width="661" height="560" as="geometry" />
        </mxCell>
        <mxCell id="luQNXLgjJycTRz7pYveU-2" value="&lt;font size=&quot;1&quot;&gt;&lt;b style=&quot;font-size: 28px&quot;&gt;Ofen used channel status&lt;/b&gt;&lt;/font&gt;" style="text;html=1;align=center;verticalAlign=middle;whiteSpace=wrap;rounded=0;strokeWidth=5;fontColor=#46495D;" vertex="1" parent="1">
          <mxGeometry x="-450" y="420" width="400" height="30" as="geometry" />
        </mxCell>
        <mxCell id="luQNXLgjJycTRz7pYveU-3" value="" style="ellipse;whiteSpace=wrap;html=1;fillColor=#B2C9AB;strokeColor=#788AA3;strokeWidth=1;fontColor=#46495D;" vertex="1" parent="1">
          <mxGeometry x="-490" y="420" width="50" height="30" as="geometry" />
        </mxCell>
        <mxCell id="luQNXLgjJycTRz7pYveU-4" style="edgeStyle=orthogonalEdgeStyle;curved=1;rounded=0;orthogonalLoop=1;jettySize=auto;html=1;endSize=24;startArrow=classic;startFill=1;startSize=24;" edge="1" parent="1" source="luQNXLgjJycTRz7pYveU-7" target="luQNXLgjJycTRz7pYveU-16">
          <mxGeometry relative="1" as="geometry" />
        </mxCell>
        <mxCell id="luQNXLgjJycTRz7pYveU-7" value="&lt;span style=&quot;font-size: 28px&quot;&gt;Busy&lt;/span&gt;" style="ellipse;whiteSpace=wrap;html=1;fillColor=#B2C9AB;strokeColor=#788AA3;fontColor=#46495D;" vertex="1" parent="1">
          <mxGeometry x="238" y="683" width="260" height="80" as="geometry" />
        </mxCell>
        <mxCell id="luQNXLgjJycTRz7pYveU-8" value="&lt;h1&gt;坐席操作状态迁移&lt;/h1&gt;&lt;p style=&quot;font-size: 20px&quot;&gt;&lt;br&gt;&lt;/p&gt;&lt;p style=&quot;font-size: 20px&quot;&gt;&lt;br&gt;&lt;/p&gt;&lt;p&gt;&lt;font color=&quot;#ff8000&quot;&gt;&lt;br&gt;&lt;/font&gt;&lt;/p&gt;&lt;p&gt;&lt;font color=&quot;#ff8000&quot;&gt;&lt;br&gt;&lt;/font&gt;&lt;/p&gt;&lt;p&gt;&lt;br&gt;&lt;/p&gt;" style="text;html=1;strokeColor=none;fillColor=none;spacing=5;spacingTop=-20;whiteSpace=wrap;overflow=hidden;rounded=0;fontColor=#46495D;" vertex="1" parent="1">
          <mxGeometry x="249" y="40" width="250" height="60" as="geometry" />
        </mxCell>
        <mxCell id="luQNXLgjJycTRz7pYveU-9" value="&lt;font size=&quot;1&quot;&gt;&lt;b style=&quot;font-size: 28px&quot;&gt;Ofen used channel status&lt;/b&gt;&lt;/font&gt;" style="text;html=1;align=center;verticalAlign=middle;whiteSpace=wrap;rounded=0;strokeWidth=5;fontColor=#46495D;" vertex="1" parent="1">
          <mxGeometry x="-450" y="420" width="400" height="30" as="geometry" />
        </mxCell>
        <mxCell id="luQNXLgjJycTRz7pYveU-10" value="" style="ellipse;whiteSpace=wrap;html=1;fillColor=#B2C9AB;strokeColor=#788AA3;strokeWidth=1;fontColor=#46495D;" vertex="1" parent="1">
          <mxGeometry x="-490" y="420" width="50" height="30" as="geometry" />
        </mxCell>
        <mxCell id="luQNXLgjJycTRz7pYveU-105" style="edgeStyle=orthogonalEdgeStyle;rounded=0;orthogonalLoop=1;jettySize=auto;html=1;endSize=24;startArrow=classic;startFill=1;startSize=24;" edge="1" parent="1" source="luQNXLgjJycTRz7pYveU-16" target="luQNXLgjJycTRz7pYveU-19">
          <mxGeometry relative="1" as="geometry" />
        </mxCell>
        <mxCell id="luQNXLgjJycTRz7pYveU-110" value="" style="edgeStyle=orthogonalEdgeStyle;curved=1;rounded=0;orthogonalLoop=1;jettySize=auto;html=1;endSize=24;startArrow=classic;startFill=1;startSize=24;" edge="1" parent="1" source="luQNXLgjJycTRz7pYveU-16" target="luQNXLgjJycTRz7pYveU-109">
          <mxGeometry relative="1" as="geometry" />
        </mxCell>
        <mxCell id="luQNXLgjJycTRz7pYveU-114" value="" style="edgeStyle=orthogonalEdgeStyle;curved=1;rounded=0;orthogonalLoop=1;jettySize=auto;html=1;startArrow=classic;startFill=1;startSize=24;endSize=24;" edge="1" parent="1" source="luQNXLgjJycTRz7pYveU-16" target="luQNXLgjJycTRz7pYveU-113">
          <mxGeometry relative="1" as="geometry" />
        </mxCell>
        <mxCell id="luQNXLgjJycTRz7pYveU-16" value="&lt;span style=&quot;font-size: 28px&quot;&gt;Idle&lt;/span&gt;" style="ellipse;whiteSpace=wrap;html=1;fillColor=#B2C9AB;strokeColor=#788AA3;fontColor=#46495D;" vertex="1" parent="1">
          <mxGeometry x="239" y="1187" width="260" height="80" as="geometry" />
        </mxCell>
        <mxCell id="luQNXLgjJycTRz7pYveU-19" value="&lt;span style=&quot;font-size: 28px&quot;&gt;Rest&lt;/span&gt;" style="ellipse;whiteSpace=wrap;html=1;fillColor=#B2C9AB;strokeColor=#788AA3;fontColor=#46495D;" vertex="1" parent="1">
          <mxGeometry x="238" y="1640" width="260" height="80" as="geometry" />
        </mxCell>
        <mxCell id="luQNXLgjJycTRz7pYveU-20" style="edgeStyle=orthogonalEdgeStyle;rounded=0;orthogonalLoop=1;jettySize=auto;html=1;entryX=0.5;entryY=0;entryDx=0;entryDy=0;endSize=24;startArrow=classic;startFill=1;startSize=24;" edge="1" parent="1" source="luQNXLgjJycTRz7pYveU-21" target="luQNXLgjJycTRz7pYveU-7">
          <mxGeometry relative="1" as="geometry" />
        </mxCell>
        <mxCell id="luQNXLgjJycTRz7pYveU-21" value="&lt;span style=&quot;font-size: 28px&quot;&gt;Close&lt;/span&gt;" style="ellipse;whiteSpace=wrap;html=1;fillColor=#B2C9AB;strokeColor=#788AA3;fontColor=#46495D;" vertex="1" parent="1">
          <mxGeometry x="237" y="180" width="260" height="80" as="geometry" />
        </mxCell>
        <mxCell id="luQNXLgjJycTRz7pYveU-60" value="&lt;div style=&quot;font-family: &amp;#34;consolas&amp;#34; , &amp;#34;courier new&amp;#34; , monospace ; line-height: 19px ; font-size: 28px&quot;&gt;&lt;div style=&quot;font-family: &amp;#34;consolas&amp;#34; , &amp;#34;courier new&amp;#34; , monospace ; line-height: 19px&quot;&gt;&lt;h1 class=&quot;topictitle1&quot;&gt;&lt;span style=&quot;background-color: rgb(248 , 249 , 250) ; color: rgb(0 , 0 , 255) ; font-size: 20px ; font-weight: 400&quot;&gt;onAgentStateChange&lt;/span&gt;&lt;br&gt;&lt;/h1&gt;&lt;/div&gt;&lt;/div&gt;" style="edgeLabel;html=1;align=center;verticalAlign=middle;resizable=0;points=[];fontSize=15;fontColor=#CC00CC;labelBackgroundColor=default;fontStyle=1;" vertex="1" connectable="0" parent="1">
          <mxGeometry x="40" y="250" as="geometry">
            <mxPoint x="320" y="206" as="offset" />
          </mxGeometry>
        </mxCell>
        <mxCell id="luQNXLgjJycTRz7pYveU-61" value="&lt;span style=&quot;font-family: &amp;#34;consolas&amp;#34; , &amp;#34;courier new&amp;#34; , monospace&quot;&gt;&lt;br&gt;&lt;/span&gt;&lt;span style=&quot;color: rgb(0 , 0 , 255) ; font-family: &amp;#34;consolas&amp;#34; , &amp;#34;courier new&amp;#34; , monospace&quot;&gt;onAgentStateChange&lt;/span&gt;&lt;span style=&quot;color: rgb(0 , 0 , 255) ; font-family: &amp;#34;consolas&amp;#34; , &amp;#34;courier new&amp;#34; , monospace&quot;&gt;&lt;br&gt;&lt;/span&gt;" style="rounded=0;whiteSpace=wrap;html=1;labelBackgroundColor=none;fontSize=20;fontColor=#FF8000;fillColor=#FFFFFF;gradientColor=none;strokeColor=none;" vertex="1" parent="1">
          <mxGeometry x="259" y="930" width="240" height="80" as="geometry" />
        </mxCell>
        <mxCell id="luQNXLgjJycTRz7pYveU-82" value="&lt;div style=&quot;font-family: &amp;#34;consolas&amp;#34; , &amp;#34;courier new&amp;#34; , monospace ; line-height: 19px ; font-size: 28px&quot;&gt;&lt;div style=&quot;font-family: &amp;#34;consolas&amp;#34; , &amp;#34;courier new&amp;#34; , monospace ; line-height: 19px&quot;&gt;&lt;h1 class=&quot;topictitle1&quot;&gt;&lt;span style=&quot;background-color: rgb(248 , 249 , 250) ; color: rgb(0 , 0 , 255) ; font-size: 20px ; font-weight: 400&quot;&gt;onAgentStateChange&lt;/span&gt;&lt;br&gt;&lt;/h1&gt;&lt;/div&gt;&lt;/div&gt;" style="edgeLabel;html=1;align=center;verticalAlign=middle;resizable=0;points=[];fontSize=15;fontColor=#CC00CC;labelBackgroundColor=default;fontStyle=1;" vertex="1" connectable="0" parent="1">
          <mxGeometry x="60" y="1240" as="geometry">
            <mxPoint x="320" y="206" as="offset" />
          </mxGeometry>
        </mxCell>
        <mxCell id="luQNXLgjJycTRz7pYveU-90" value="&lt;span style=&quot;font-family: &amp;#34;consolas&amp;#34; , &amp;#34;courier new&amp;#34; , monospace&quot;&gt;&lt;br&gt;&lt;/span&gt;&lt;span style=&quot;color: rgb(0 , 0 , 255) ; font-family: &amp;#34;consolas&amp;#34; , &amp;#34;courier new&amp;#34; , monospace&quot;&gt;onAgentStateChange&lt;/span&gt;&lt;span style=&quot;color: rgb(0 , 0 , 255) ; font-family: &amp;#34;consolas&amp;#34; , &amp;#34;courier new&amp;#34; , monospace&quot;&gt;&lt;br&gt;&lt;/span&gt;" style="rounded=0;whiteSpace=wrap;html=1;labelBackgroundColor=none;fontSize=20;fontColor=#FF8000;fillColor=#FFFFFF;gradientColor=none;strokeColor=none;" vertex="1" parent="1">
          <mxGeometry x="-90" y="1187" width="240" height="80" as="geometry" />
        </mxCell>
        <mxCell id="luQNXLgjJycTRz7pYveU-109" value="&lt;span style=&quot;font-size: 28px&quot;&gt;Qccupy&lt;/span&gt;" style="ellipse;whiteSpace=wrap;html=1;dashed=1;" vertex="1" parent="1">
          <mxGeometry x="-450" y="1187" width="260" height="80" as="geometry" />
        </mxCell>
        <mxCell id="luQNXLgjJycTRz7pYveU-115" style="rounded=0;orthogonalLoop=1;jettySize=auto;html=1;entryX=1;entryY=0.5;entryDx=0;entryDy=0;startArrow=classic;startFill=1;startSize=24;endSize=24;edgeStyle=orthogonalEdgeStyle;curved=1;exitX=0;exitY=0;exitDx=0;exitDy=0;" edge="1" parent="1" source="luQNXLgjJycTRz7pYveU-113" target="luQNXLgjJycTRz7pYveU-7">
          <mxGeometry relative="1" as="geometry" />
        </mxCell>
        <mxCell id="luQNXLgjJycTRz7pYveU-117" style="edgeStyle=orthogonalEdgeStyle;curved=1;rounded=0;orthogonalLoop=1;jettySize=auto;html=1;entryX=1;entryY=0.5;entryDx=0;entryDy=0;startArrow=none;startFill=0;startSize=24;endSize=24;exitX=0;exitY=1;exitDx=0;exitDy=0;" edge="1" parent="1" source="luQNXLgjJycTRz7pYveU-113" target="luQNXLgjJycTRz7pYveU-19">
          <mxGeometry relative="1" as="geometry" />
        </mxCell>
        <mxCell id="luQNXLgjJycTRz7pYveU-113" value="&lt;span style=&quot;font-size: 28px&quot;&gt;Work&lt;/span&gt;" style="ellipse;whiteSpace=wrap;html=1;dashed=1;" vertex="1" parent="1">
          <mxGeometry x="910" y="1187" width="260" height="80" as="geometry" />
        </mxCell>
        <mxCell id="luQNXLgjJycTRz7pYveU-116" value="&lt;span style=&quot;font-family: &amp;#34;consolas&amp;#34; , &amp;#34;courier new&amp;#34; , monospace&quot;&gt;&lt;br&gt;&lt;/span&gt;&lt;span style=&quot;color: rgb(0 , 0 , 255) ; font-family: &amp;#34;consolas&amp;#34; , &amp;#34;courier new&amp;#34; , monospace&quot;&gt;onAgentStateChange&lt;/span&gt;&lt;span style=&quot;color: rgb(0 , 0 , 255) ; font-family: &amp;#34;consolas&amp;#34; , &amp;#34;courier new&amp;#34; , monospace&quot;&gt;&lt;br&gt;&lt;/span&gt;" style="rounded=0;whiteSpace=wrap;html=1;labelBackgroundColor=none;fontSize=20;fontColor=#FF8000;fillColor=#FFFFFF;gradientColor=none;strokeColor=none;" vertex="1" parent="1">
          <mxGeometry x="600" y="880" width="240" height="80" as="geometry" />
        </mxCell>
        <mxCell id="luQNXLgjJycTRz7pYveU-118" value="&lt;span style=&quot;font-family: &amp;#34;consolas&amp;#34; , &amp;#34;courier new&amp;#34; , monospace&quot;&gt;&lt;br&gt;&lt;/span&gt;&lt;span style=&quot;color: rgb(0 , 0 , 255) ; font-family: &amp;#34;consolas&amp;#34; , &amp;#34;courier new&amp;#34; , monospace&quot;&gt;onAgentStateChange&lt;/span&gt;&lt;span style=&quot;color: rgb(0 , 0 , 255) ; font-family: &amp;#34;consolas&amp;#34; , &amp;#34;courier new&amp;#34; , monospace&quot;&gt;&lt;br&gt;&lt;/span&gt;" style="rounded=0;whiteSpace=wrap;html=1;labelBackgroundColor=none;fontSize=20;fontColor=#FF8000;fillColor=#FFFFFF;gradientColor=none;strokeColor=none;" vertex="1" parent="1">
          <mxGeometry x="590" y="1450" width="240" height="80" as="geometry" />
        </mxCell>
        <mxCell id="luQNXLgjJycTRz7pYveU-119" value="&lt;div style=&quot;font-family: &amp;#34;consolas&amp;#34; , &amp;#34;courier new&amp;#34; , monospace ; line-height: 19px ; font-size: 28px&quot;&gt;&lt;div style=&quot;font-family: &amp;#34;consolas&amp;#34; , &amp;#34;courier new&amp;#34; , monospace ; line-height: 19px&quot;&gt;&lt;h1 class=&quot;topictitle1&quot;&gt;&lt;span style=&quot;background-color: rgb(248 , 249 , 250) ; color: rgb(0 , 0 , 255) ; font-size: 20px ; font-weight: 400&quot;&gt;onAgentStateChange&lt;/span&gt;&lt;br&gt;&lt;/h1&gt;&lt;/div&gt;&lt;/div&gt;" style="edgeLabel;html=1;align=center;verticalAlign=middle;resizable=0;points=[];fontSize=15;fontColor=#CC00CC;labelBackgroundColor=default;fontStyle=1;" vertex="1" connectable="0" parent="1">
          <mxGeometry x="360" y="1020" as="geometry">
            <mxPoint x="320" y="206" as="offset" />
          </mxGeometry>
        </mxCell>
        <mxCell id="luQNXLgjJycTRz7pYveU-126" style="rounded=0;orthogonalLoop=1;jettySize=auto;html=1;startArrow=none;startFill=0;startSize=24;endSize=24;" edge="1" parent="1" source="luQNXLgjJycTRz7pYveU-120" target="luQNXLgjJycTRz7pYveU-123">
          <mxGeometry relative="1" as="geometry" />
        </mxCell>
        <mxCell id="luQNXLgjJycTRz7pYveU-127" style="rounded=0;orthogonalLoop=1;jettySize=auto;html=1;entryX=0.5;entryY=0;entryDx=0;entryDy=0;startArrow=none;startFill=0;startSize=24;endSize=24;" edge="1" parent="1" source="luQNXLgjJycTRz7pYveU-120" target="luQNXLgjJycTRz7pYveU-124">
          <mxGeometry relative="1" as="geometry" />
        </mxCell>
        <mxCell id="luQNXLgjJycTRz7pYveU-128" style="rounded=0;orthogonalLoop=1;jettySize=auto;html=1;startArrow=none;startFill=0;startSize=24;endSize=24;entryX=0.5;entryY=0;entryDx=0;entryDy=0;" edge="1" parent="1" source="luQNXLgjJycTRz7pYveU-120" target="luQNXLgjJycTRz7pYveU-125">
          <mxGeometry relative="1" as="geometry" />
        </mxCell>
        <mxCell id="luQNXLgjJycTRz7pYveU-120" value="&lt;span style=&quot;font-size: 28px&quot;&gt;Qccupy&lt;/span&gt;" style="ellipse;whiteSpace=wrap;html=1;dashed=1;" vertex="1" parent="1">
          <mxGeometry x="-200" y="2270" width="260" height="80" as="geometry" />
        </mxCell>
        <mxCell id="luQNXLgjJycTRz7pYveU-129" style="rounded=0;orthogonalLoop=1;jettySize=auto;html=1;startArrow=none;startFill=0;startSize=24;endSize=24;" edge="1" parent="1" source="luQNXLgjJycTRz7pYveU-123" target="luQNXLgjJycTRz7pYveU-124">
          <mxGeometry relative="1" as="geometry" />
        </mxCell>
        <mxCell id="luQNXLgjJycTRz7pYveU-123" value="&lt;span style=&quot;font-size: 28px&quot;&gt;Monitoring&lt;/span&gt;" style="ellipse;whiteSpace=wrap;html=1;fillColor=#B2C9AB;strokeColor=#788AA3;fontColor=#46495D;" vertex="1" parent="1">
          <mxGeometry x="-215.5" y="2697" width="291" height="70" as="geometry" />
        </mxCell>
        <mxCell id="luQNXLgjJycTRz7pYveU-124" value="&lt;span style=&quot;font-size: 28px&quot;&gt;Barging&lt;/span&gt;" style="ellipse;whiteSpace=wrap;html=1;fillColor=#B2C9AB;strokeColor=#788AA3;fontColor=#46495D;" vertex="1" parent="1">
          <mxGeometry x="-700" y="2692" width="260" height="80" as="geometry" />
        </mxCell>
        <mxCell id="luQNXLgjJycTRz7pYveU-125" value="&lt;span style=&quot;font-size: 28px&quot;&gt;Whispering&lt;/span&gt;" style="ellipse;whiteSpace=wrap;html=1;fillColor=#B2C9AB;strokeColor=#788AA3;fontColor=#46495D;" vertex="1" parent="1">
          <mxGeometry x="235" y="2697" width="260" height="80" as="geometry" />
        </mxCell>
      </root>
    </mxGraphModel>
  </diagram>
</mxfile>
